<svg width="33" height="23" viewBox="0 0 33 23" fill="none" xmlns="http://www.w3.org/2000/svg">
<path fill-rule="evenodd" clip-rule="evenodd" d="M20.0169 1.26691C20.7829 0.500879 22.0249 0.500873 22.7909 1.2669L31.6178 10.0937C31.9857 10.4616 32.1924 10.9605 32.1924 11.4808C32.1924 12.001 31.9857 12.4999 31.6178 12.8678L22.7909 21.6947C22.0249 22.4607 20.7829 22.4607 20.0169 21.6947C19.2508 20.9287 19.2508 19.6867 20.0169 18.9207L25.4952 13.4423H2.76928C1.68595 13.4423 0.807739 12.5641 0.807739 11.4808C0.807739 10.3974 1.68595 9.51923 2.76928 9.51923H25.4952L20.0169 4.04094C19.2509 3.27492 19.2508 2.03294 20.0169 1.26691Z" fill="#A53F64"/>
</svg>
