<svg width="22" height="19" viewBox="0 0 22 19" fill="none" xmlns="http://www.w3.org/2000/svg">
<path d="M11 17.5415C11 17.5415 1.625 12.2915 1.625 5.91651C1.62519 4.78976 2.01561 3.69785 2.72989 2.82643C3.44416 1.95501 4.4382 1.35786 5.54299 1.13652C6.64778 0.915173 7.79514 1.08329 8.78999 1.61229C9.78484 2.14129 10.5658 2.99852 11 4.03823L11 4.03824C11.4342 2.99853 12.2152 2.1413 13.21 1.6123C14.2049 1.08329 15.3522 0.915174 16.457 1.13652C17.5618 1.35786 18.5558 1.95501 19.2701 2.82643C19.9844 3.69785 20.3748 4.78976 20.375 5.91651C20.375 12.2915 11 17.5415 11 17.5415Z" stroke="#13101E" stroke-width="2" stroke-linecap="round" stroke-linejoin="round"/>
</svg>
